<?xml version="1.0" encoding="UTF-8" standalone="no"?>
<!-- Created with Inkscape (http://www.inkscape.org/) -->

<svg
   width="22.403879mm"
   height="9.2057924mm"
   viewBox="0 0 22.403879 9.2057924"
   version="1.1"
   id="svg5"
   inkscape:version="1.1 (c68e22c387, 2021-05-23)"
   sodipodi:docname="labpy_bw.svg"
   xmlns:inkscape="http://www.inkscape.org/namespaces/inkscape"
   xmlns:sodipodi="http://sodipodi.sourceforge.net/DTD/sodipodi-0.dtd"
   xmlns:xlink="http://www.w3.org/1999/xlink"
   xmlns="http://www.w3.org/2000/svg"
   xmlns:svg="http://www.w3.org/2000/svg">
  <sodipodi:namedview
     id="namedview7"
     pagecolor="#ffffff"
     bordercolor="#666666"
     borderopacity="1.0"
     inkscape:pageshadow="2"
     inkscape:pageopacity="0.0"
     inkscape:pagecheckerboard="0"
     inkscape:document-units="mm"
     showgrid="false"
     fit-margin-top="0.5"
     fit-margin-left="0.5"
     fit-margin-right="0.5"
     fit-margin-bottom="0.5"
     inkscape:zoom="6.1290685"
     inkscape:cx="19.007782"
     inkscape:cy="11.013093"
     inkscape:window-width="1876"
     inkscape:window-height="1051"
     inkscape:window-x="35"
     inkscape:window-y="-9"
     inkscape:window-maximized="1"
     inkscape:current-layer="layer1" />
  <defs
     id="defs2">
    <linearGradient
       inkscape:collect="always"
       id="linearGradient9546">
      <stop
         style="stop-color:#f9696a;stop-opacity:1"
         offset="0"
         id="stop9542" />
      <stop
         style="stop-color:#ff7b00;stop-opacity:1"
         offset="1"
         id="stop9544" />
    </linearGradient>
    <linearGradient
       inkscape:collect="always"
       id="linearGradient8685">
      <stop
         style="stop-color:#1dbfff;stop-opacity:1"
         offset="0"
         id="stop8681" />
      <stop
         style="stop-color:#e64399;stop-opacity:1"
         offset="1"
         id="stop8683" />
    </linearGradient>
    <linearGradient
       inkscape:collect="always"
       xlink:href="#linearGradient8685"
       id="linearGradient8687"
       x1="2.216668"
       y1="17.672612"
       x2="45.576863"
       y2="17.672612"
       gradientUnits="userSpaceOnUse" />
    <linearGradient
       inkscape:collect="always"
       xlink:href="#linearGradient9546"
       id="linearGradient9382"
       x1="51.146404"
       y1="17.396446"
       x2="82.786018"
       y2="17.396446"
       gradientUnits="userSpaceOnUse" />
  </defs>
  <g
     inkscape:label="Layer 1"
     inkscape:groupmode="layer"
     id="layer1"
     transform="translate(-17.45235,-106.60825)">
    <path
       id="path4398"
       style="font-size:8.46667px;line-height:1.25;font-family:Bahnschrift;-inkscape-font-specification:'Bahnschrift, Normal';text-align:end;letter-spacing:0px;word-spacing:0px;text-anchor:end;stroke-width:0.999999;fill-opacity:1;fill:url(#linearGradient8687)"
       d="M 36.154297 4.1503906 C 36.055485 4.1485884 35.953914 4.1539164 35.847656 4.1660156 C 30.813636 4.7392512 34.599044 12.326767 36.015625 18.871094 C 37.255815 17.327666 38.348287 15.734236 38.486328 14.087891 C 38.506124 13.851809 38.52661 13.596021 38.546875 13.330078 C 36.891946 13.517499 36.204496 14.808507 35.847656 16.525391 C 33.80317 12.34357 37.232628 5.3465047 38.421875 9.6542969 C 38.487079 9.9040894 38.573415 10.075877 38.685547 10.193359 C 38.690046 7.2163181 38.228432 4.1882203 36.154297 4.1503906 z M 38.685547 10.193359 C 38.683876 11.298738 38.618174 12.394414 38.546875 13.330078 C 38.701093 13.312613 38.863618 13.304385 39.035156 13.306641 C 39.908212 13.381437 40.877486 13.647929 41.472656 14.291016 C 42.719976 15.71242 42.433149 18.593607 42.347656 20.572266 C 42.029167 22.639025 41.391174 23.985243 39.035156 24.244141 C 38.444242 24.28889 37.816789 24.144917 37.300781 23.853516 C 36.921079 23.520076 36.670655 23.187109 36.488281 22.841797 C 36.510703 21.617858 36.318148 20.268693 36.015625 18.871094 C 33.737494 21.706249 30.958038 24.372209 32.660156 26.884766 C 33.116387 27.558315 34.526543 27.348744 35.097656 26.769531 C 35.534215 26.326759 35.850773 25.80821 36.072266 25.230469 C 36.072266 25.230469 36.074219 25.232422 36.074219 25.232422 C 36.395222 25.696525 36.824191 26.098406 37.285156 26.400391 C 38.048216 26.900309 39.925781 27.119141 39.925781 27.119141 C 42.20487 26.699311 44.267859 26.683459 44.878906 24.103516 C 45.792883 22.108265 45.553676 19.392033 45.535156 17.041016 C 45.427965 15.834099 45.406185 14.561259 44.894531 13.462891 C 43.993738 11.57324 42.29248 10.537089 40.082031 10.431641 C 39.42234 10.440795 38.972105 10.493593 38.685547 10.193359 z M 9.3320312 6.8066406 C 8.7229821 6.8066406 8.1139323 6.9954465 7.7382812 7.3710938 C 3.3527579 11.75663 2.5596295 20.604111 5.3574219 26.605469 C 10.270666 20.617186 15.324814 11.770139 10.925781 7.3710938 C 10.55013 6.9954465 9.9410804 6.8066406 9.3320312 6.8066406 z M 5.3574219 26.605469 C 4.2898686 27.906607 3.2292624 29.075422 2.2734375 30.03125 C 1.5221355 30.782544 8.4895833 30.840987 7.7382812 30.089844 C 6.7689473 29.120507 5.975819 27.931951 5.3574219 26.605469 z M 25.083984 8.4257812 C 23.904186 8.4309309 22.693232 8.6552826 21.583984 9.0371094 C 20.672415 9.4231125 19.153794 9.7659633 19.162109 10.755859 C 19.260309 12.323003 21.955475 12.592602 23.130859 11.521484 C 24.609369 11.152073 24.331881 10.79523 25.712891 11.826172 C 26.323005 12.448282 27.838469 13.411613 28.302734 14.583984 C 29.151239 16.726588 27.763811 19.540005 27.5 21.890625 C 27.466112 21.960832 27.431039 22.034693 27.396484 22.115234 C 26.057163 22.873219 23.687962 22.606409 22.177734 21.912109 C 21.476367 20.821716 21.009496 19.676459 21.974609 18.396484 C 22.885196 18.021215 24.184721 17.773972 25.375 17.603516 C 26.558449 17.10322 28.853438 16.489135 28.443359 15.271484 C 27.915246 14.006099 21.697349 15.392568 19.724609 16.474609 C 17.841018 18.301331 18.084664 21.753461 19.849609 23.865234 C 21.002161 24.902299 22.797572 24.892113 24.333984 25.099609 C 24.920699 25.121531 25.57344 25.17793 26.162109 24.880859 C 26.645927 24.69657 27.15878 24.55104 27.583984 24.255859 C 27.645011 24.213469 27.708696 24.169142 27.771484 24.125 C 27.771484 24.125 27.773438 24.126953 27.773438 24.126953 C 27.90236 24.390588 28.075544 24.638045 28.302734 24.865234 C 33.074626 29.260485 32.159724 17.282276 31.333984 14.443359 C 31.088958 12.262496 30.557981 10.347263 28.396484 9.1308594 C 27.41242 8.6347019 26.263782 8.4206316 25.083984 8.4257812 z M 16.242188 23.646484 C 16.209795 23.650627 16.182484 23.665172 16.160156 23.6875 C 14.847536 25.000123 13.41966 26.347182 12.201172 27.476562 C 15.348325 28.022861 20.216344 29.15384 22.216797 31.154297 C 22.908944 31.846451 17.246341 23.51805 16.242188 23.646484 z M 12.201172 27.476562 C 10.527771 27.186085 9.3320312 27.058594 9.3320312 27.058594 C 7.6442719 27.058594 8.3216124 30.089844 9.3320312 30.089844 C 9.3320312 30.089844 10.575267 28.983565 12.201172 27.476562 z "
       transform="matrix(0.26458333,0,0,0.26458333,17.45235,106.60825)" />
    <path
       id="path4404"
       style="font-size:8.46667px;line-height:1.25;font-family:Bahnschrift;-inkscape-font-specification:'Bahnschrift, Normal';text-align:end;letter-spacing:0px;word-spacing:0px;text-anchor:end;stroke-width:0.999999;fill-opacity:1.0;fill:url(#linearGradient9382)"
       d="M 55.246094 1.890625 C 54.7306 1.9035762 54.246693 1.9939854 53.814453 2.1992188 C 53.094834 1.9439948 52.215234 1.9748066 51.796875 2.4765625 C 49.491554 5.241524 54.008437 9.3289463 54.605469 12.904297 C 54.033979 12.960702 53.518467 13.155358 53.091797 13.582031 C 52.377323 14.296513 52.377323 15.898799 53.091797 16.613281 C 53.431399 16.95288 53.828907 17.16579 54.265625 17.289062 C 53.345621 21.827889 51.488889 26.983834 54.927734 26.925781 C 59.042025 26.856413 60.316453 22.099341 59.849609 16.669922 C 59.984555 16.648273 60.117205 16.628771 60.248047 16.613281 C 61.466166 16.469054 62.757922 16.356779 63.826172 15.753906 C 65.713132 14.660674 66.578057 12.723431 66.953125 10.542969 C 67.093233 13.580175 70.801001 22.155607 73.306641 26.109375 C 72.709891 27.309789 72.178771 28.249099 71.759766 28.75 C 71.112397 29.365685 69.739233 28.872781 69.216797 29.597656 C 68.619923 30.425826 68.476353 31.957429 69.216797 32.660156 C 69.72596 33.143407 70.664481 32.800986 71.320312 32.550781 C 72.543054 32.084161 73.627562 31.162046 74.380859 30.091797 C 78.525017 24.204087 85.806366 15.397268 81.435547 9.6757812 C 80.205409 10.151917 77.330291 17.252708 74.873047 22.746094 C 73.966718 18.016196 74.081734 12.365212 70.326172 9.6757812 C 69.445387 9.0450537 67.673231 8.7718316 67.076172 9.6757812 C 67.076172 9.6757812 66.82061 7.1162746 66.216797 6.0195312 C 64.991697 3.8500824 62.806228 2.9455194 60.248047 2.7070312 C 58.693859 2.5197675 56.824671 1.8509651 55.246094 1.890625 z M 59.664062 5.703125 C 59.900492 5.6971037 60.132424 5.7078088 60.357422 5.7382812 C 61.642786 5.9602151 62.685112 6.3146356 63.373047 7.6132812 C 63.687522 8.2417789 63.810547 9.6757812 63.810547 9.6757812 C 63.62337 11.131882 63.374329 12.212566 62.169922 13.097656 C 61.638932 13.427836 60.977468 13.500771 60.357422 13.582031 C 60.054234 13.621831 59.738727 13.624222 59.416016 13.601562 C 58.902569 10.958764 58.038607 8.3342308 56.943359 6.1601562 C 57.855537 5.9627447 58.792108 5.7253315 59.664062 5.703125 z "
       transform="matrix(0.26458333,0,0,0.26458333,17.45235,106.60825)" />
  </g>
</svg>
