<?xml version="1.0" encoding="UTF-8" standalone="no"?>
<!-- Created with Inkscape (http://www.inkscape.org/) -->

<svg
   width="17.802288mm"
   height="6.9747906mm"
   viewBox="0 0 17.802288 6.9747906"
   version="1.1"
   id="svg5"
   inkscape:version="1.1 (c68e22c387, 2021-05-23)"
   sodipodi:docname="labpy_color - Copy.svg"
   inkscape:export-filename="C:\Users\Franciszek\LocalFiles\Python\labpy_doc\img\logo.png"
   inkscape:export-xdpi="710.12885"
   inkscape:export-ydpi="710.12885"
   xmlns:inkscape="http://www.inkscape.org/namespaces/inkscape"
   xmlns:sodipodi="http://sodipodi.sourceforge.net/DTD/sodipodi-0.dtd"
   xmlns="http://www.w3.org/2000/svg"
   xmlns:svg="http://www.w3.org/2000/svg">
  <sodipodi:namedview
     id="namedview7"
     pagecolor="#ffffff"
     bordercolor="#666666"
     borderopacity="1.0"
     inkscape:pageshadow="2"
     inkscape:pageopacity="0.0"
     inkscape:pagecheckerboard="0"
     inkscape:document-units="mm"
     showgrid="false"
     fit-margin-top="0.5"
     fit-margin-left="0.5"
     fit-margin-right="0.5"
     fit-margin-bottom="0.5"
     inkscape:zoom="8.6678118"
     inkscape:cx="36.572091"
     inkscape:cy="18.978262"
     inkscape:window-width="1601"
     inkscape:window-height="1041"
     inkscape:window-x="36"
     inkscape:window-y="0"
     inkscape:window-maximized="0"
     inkscape:current-layer="layer1"
     inkscape:snap-global="false" />
  <defs
     id="defs2" />
  <g
     inkscape:label="Layer 1"
     inkscape:groupmode="layer"
     id="layer1"
     transform="translate(-18.061429,-107.36981)">
    <path
       id="path4398"
       style="font-size:8.46667px;line-height:1.25;font-family:Bahnschrift;-inkscape-font-specification:'Bahnschrift, Normal';text-align:end;letter-spacing:0px;word-spacing:0px;text-anchor:end;fill:#be70c7;fill-opacity:1;stroke-width:0.264583"
       d="m 26.799939,107.95092 c -0.02614,-4.8e-4 -0.05302,9.3e-4 -0.08113,0.004 -1.331918,0.15167 -0.406674,3.25809 -0.03187,4.98961 0.381718,-0.70796 2.282558,-5.02456 0.113002,-4.99374 z m -0.02117,5.57815 c -0.02221,0.42887 0.552632,0.34883 1.049585,0.17869 2.119182,-0.72554 2.15014,-2.25064 1.146727,-3.20114 -0.30633,-0.29017 -1.488543,-0.60352 -1.013845,-0.0694 2.344561,2.63791 -1.11924,1.87086 -1.182467,3.09187 z"
       sodipodi:nodetypes="cccccssssss" />
    <path
       id="path4404"
       style="font-size:8.46667px;line-height:1.25;font-family:Bahnschrift;-inkscape-font-specification:'Bahnschrift, Normal';text-align:end;letter-spacing:0px;word-spacing:0px;text-anchor:end;fill:#fa6b5b;fill-opacity:1;stroke-width:0.264583"
       d="m 30.534699,107.88181 c -0.344943,-0.0559 -0.82433,0.0803 -0.887786,0.47482 0.01407,0.33366 0.168818,0.65283 0.348756,0.93163 0.17952,0.28521 0.427785,0.6197 0.300157,0.97436 -0.362904,0.0376 -0.384562,0.48792 -0.214687,0.734 0.524826,0.44729 -0.153272,1.08542 0.159576,1.63638 0.248669,0.30216 0.698753,0.14242 0.92991,-0.0971 0.527299,-0.42095 0.320553,-1.22294 0.428665,-1.47543 0.398642,-0.12468 0.924062,-0.20043 1.085537,-0.65047 0.117818,-0.38312 0.258623,-0.42229 0.345328,-0.0543 0.272507,0.583 -0.05962,1.22222 0.330886,1.85515 -0.03684,0.41851 -0.477298,0.56562 -0.784579,0.75117 -0.345021,0.12994 -0.212579,0.68723 0.154089,0.66597 0.369671,0.0306 0.599092,-0.30979 0.828692,-0.5411 0.377953,-0.46385 0.679837,-0.98366 1.031057,-1.46704 0.463391,-0.71683 0.911496,-1.56285 0.733497,-2.44422 -0.01723,-0.40465 -0.463337,-0.35021 -0.571454,-0.029 -0.185761,0.3296 -0.301972,0.69216 -0.475117,1.02914 -0.198026,0.43877 -0.280739,0.71341 -0.476771,1.15307 -0.166064,-0.87449 0.237626,-1.01381 -0.330395,-1.75131 -0.279847,-0.41082 -0.585426,-0.81099 -0.668161,-0.93125 -0.357478,-0.49464 -1.006462,-0.58726 -1.569069,-0.65698 -0.231089,-0.0439 -0.460527,-0.11468 -0.698129,-0.10755 z m 0.938016,0.80946 c 0.519758,-0.073 1.00115,0.47211 0.867163,0.9789 -0.01969,0.36662 -0.375744,0.75854 -0.762385,0.6836 -0.278119,-0.0819 -0.23214,-0.43193 -0.32493,-0.65306 -0.06144,-0.27835 -0.184069,-0.53642 -0.306916,-0.79025 -0.02163,-0.26111 0.37505,-0.16643 0.527068,-0.21919 z"
       sodipodi:nodetypes="cccccccccccccccccccccccccccccc" />
    <path
       d="m 20.76497,112.35731 c -0.263956,0.38436 -0.527781,0.75858 -0.767401,1.09446 1.287291,-0.0225 2.294397,0.0997 3.430553,0.28928 0.575216,0.096 -1.864508,-2.2175 -2.252339,-2.08667 -0.14485,0.31523 -0.217909,0.40912 -0.410813,0.70293 z"
       style="font-size:8.46667px;line-height:1.25;font-family:Bahnschrift;-inkscape-font-specification:'Bahnschrift, Normal';text-align:end;letter-spacing:0px;word-spacing:0px;text-anchor:end;fill:#02a1ff;fill-opacity:1;stroke-width:0.264583"
       id="path1715"
       sodipodi:nodetypes="ccscc"
       inkscape:export-filename="C:\Users\Franciszek\LocalFiles\Python\labpy_doc\img\path1715.png"
       inkscape:export-xdpi="283.91446"
       inkscape:export-ydpi="283.91446" />
    <path
       d="m 20.297465,108.01829 c -0.175151,0 -0.350301,0.0542 -0.458332,0.16232 -1.261194,1.2612 -1.489282,3.80557 -0.68469,5.53145 1.412957,-1.72211 2.866434,-4.26636 1.601355,-5.53145 -0.108029,-0.10804 -0.283181,-0.16232 -0.458333,-0.16232 z m -1.143022,5.69377 c -1.02713,-5.10082 -0.513565,-2.5504 0,0 z"
       style="font-size:8.46667px;line-height:1.25;font-family:Bahnschrift;-inkscape-font-specification:'Bahnschrift, Normal';text-align:end;letter-spacing:0px;word-spacing:0px;text-anchor:end;fill:#22bcfd;fill-opacity:1;stroke-width:0.264583"
       id="path3362"
       inkscape:export-filename="C:\Users\Franciszek\LocalFiles\Python\labpy_doc\img\path1715.png"
       inkscape:export-xdpi="283.91446"
       inkscape:export-ydpi="283.91446" />
    <path
       d="m 23.967409,108.00009 c -0.506659,0.0519 -1.086896,0.0743 -1.462685,0.46689 -0.180502,0.27787 0.160728,0.57305 0.435099,0.55229 0.915239,-0.46375 2.145756,0.12657 1.93083,1.28903 -0.120141,0.92275 -0.282729,1.49744 -1.266804,1.4058 -0.439061,-0.0163 -0.763976,-0.55234 -0.528571,-0.93605 0.270511,-0.32403 0.738459,-0.28761 1.11325,-0.38936 0.233992,-0.0829 0.634561,-0.15951 0.580149,-0.48891 -0.07887,-0.33579 -0.496394,-0.26212 -0.742248,-0.18674 -0.545143,0.0924 -1.146489,0.16595 -1.573738,0.54942 -0.493772,0.63158 -0.256059,1.7299 0.51941,2.01439 0.421614,0.15283 0.931508,0.27985 1.324981,0.06 0.314984,-0.176 0.561874,0.0507 0.775955,0.19925 0.300967,0.16431 0.591913,-0.11922 0.631156,-0.41295 0.135903,-0.69135 0.09259,-1.40706 0.0069,-2.10247 -0.07557,-0.46345 -0.160795,-0.93778 -0.361382,-1.36452 -0.283817,-0.46256 -0.855165,-0.68714 -1.382286,-0.65611 z"
       style="font-size:8.46667px;line-height:1.25;font-family:Bahnschrift;-inkscape-font-specification:'Bahnschrift, Normal';text-align:end;letter-spacing:0px;word-spacing:0px;text-anchor:end;fill:#8a79eb;fill-opacity:1;stroke-width:0.0700042"
       id="path3526"
       sodipodi:nodetypes="cccccccccccscccccc" />
  </g>
</svg>
